<mxfile host="65bd71144e">
    <diagram id="FQbOa-qpKQeaC0CUL053" name="Page-1">
        <mxGraphModel dx="1205" dy="677" grid="1" gridSize="10" guides="1" tooltips="1" connect="1" arrows="1" fold="1" page="1" pageScale="1" pageWidth="850" pageHeight="1100" math="0" shadow="0">
            <root>
                <mxCell id="0"/>
                <mxCell id="1" parent="0"/>
                <mxCell id="15" value="" style="rounded=0;whiteSpace=wrap;html=1;fillColor=light-dark(#f2f6fd, #1d293b);strokeColor=#6c8ebf;glass=0;shadow=0;opacity=50;" vertex="1" parent="1">
                    <mxGeometry x="30" y="190" width="350" height="540" as="geometry"/>
                </mxCell>
                <mxCell id="21" value="" style="rounded=0;whiteSpace=wrap;html=1;fillColor=#e1d5e7;strokeColor=#9673a6;glass=0;shadow=0;opacity=50;" vertex="1" parent="1">
                    <mxGeometry x="420" y="190" width="400" height="539" as="geometry"/>
                </mxCell>
                <mxCell id="9" style="edgeStyle=none;html=1;rounded=0;curved=0;" edge="1" parent="1" source="2" target="7">
                    <mxGeometry relative="1" as="geometry">
                        <Array as="points">
                            <mxPoint x="733" y="231"/>
                        </Array>
                    </mxGeometry>
                </mxCell>
                <mxCell id="35" value="put job,&lt;div&gt;update status&lt;/div&gt;&lt;div&gt;read jobs&lt;/div&gt;" style="edgeLabel;html=1;align=center;verticalAlign=middle;resizable=0;points=[];" vertex="1" connectable="0" parent="9">
                    <mxGeometry x="-0.2992" y="-2" relative="1" as="geometry">
                        <mxPoint as="offset"/>
                    </mxGeometry>
                </mxCell>
                <mxCell id="2" value="api server&lt;div&gt;(fastapi)&lt;/div&gt;" style="rounded=0;whiteSpace=wrap;html=1;" vertex="1" parent="1">
                    <mxGeometry x="673" y="391" width="120" height="100" as="geometry"/>
                </mxCell>
                <mxCell id="8" style="edgeStyle=none;html=1;rounded=0;curved=0;" edge="1" parent="1">
                    <mxGeometry relative="1" as="geometry">
                        <mxPoint x="500" y="391" as="sourcePoint"/>
                        <mxPoint x="573" y="231.7877697841726" as="targetPoint"/>
                        <Array as="points">
                            <mxPoint x="500" y="231"/>
                        </Array>
                    </mxGeometry>
                </mxCell>
                <mxCell id="36" value="update job status" style="edgeLabel;html=1;align=center;verticalAlign=middle;resizable=0;points=[];" vertex="1" connectable="0" parent="8">
                    <mxGeometry x="-0.3765" y="-2" relative="1" as="geometry">
                        <mxPoint as="offset"/>
                    </mxGeometry>
                </mxCell>
                <mxCell id="31" value="" style="edgeStyle=none;html=1;entryX=1;entryY=0.5;entryDx=0;entryDy=0;rounded=0;curved=0;" edge="1" parent="1" source="4" target="16">
                    <mxGeometry relative="1" as="geometry">
                        <Array as="points">
                            <mxPoint x="400" y="440"/>
                            <mxPoint x="400" y="358"/>
                        </Array>
                    </mxGeometry>
                </mxCell>
                <mxCell id="34" value="send, wait" style="edgeLabel;html=1;align=center;verticalAlign=middle;resizable=0;points=[];" vertex="1" connectable="0" parent="31">
                    <mxGeometry x="0.3496" y="3" relative="1" as="geometry">
                        <mxPoint x="-25" y="-3" as="offset"/>
                    </mxGeometry>
                </mxCell>
                <mxCell id="4" value="worker&lt;div&gt;(node)&lt;/div&gt;" style="rounded=0;whiteSpace=wrap;html=1;" vertex="1" parent="1">
                    <mxGeometry x="440" y="391" width="120" height="100" as="geometry"/>
                </mxCell>
                <mxCell id="7" value="mongodb Database" style="dashed=0;outlineConnect=0;html=1;align=center;labelPosition=center;verticalLabelPosition=bottom;verticalAlign=top;shape=mxgraph.webicons.mongodb;gradientColor=#DFDEDE" vertex="1" parent="1">
                    <mxGeometry x="573" y="191" width="76.4" height="82.4" as="geometry"/>
                </mxCell>
                <mxCell id="11" style="edgeStyle=none;html=1;entryX=0.5;entryY=1;entryDx=0;entryDy=0;rounded=0;curved=0;" edge="1" parent="1" source="10" target="4">
                    <mxGeometry relative="1" as="geometry">
                        <Array as="points">
                            <mxPoint x="500" y="661"/>
                        </Array>
                    </mxGeometry>
                </mxCell>
                <mxCell id="22" value="Fetch message" style="edgeLabel;html=1;align=center;verticalAlign=middle;resizable=0;points=[];" vertex="1" connectable="0" parent="11">
                    <mxGeometry x="0.2159" y="-2" relative="1" as="geometry">
                        <mxPoint as="offset"/>
                    </mxGeometry>
                </mxCell>
                <mxCell id="10" value="" style="outlineConnect=0;dashed=0;verticalLabelPosition=bottom;verticalAlign=top;align=center;html=1;shape=mxgraph.aws3.queue;fillColor=#D9A741;gradientColor=none;" vertex="1" parent="1">
                    <mxGeometry x="574.45" y="631" width="88.55" height="60" as="geometry"/>
                </mxCell>
                <mxCell id="12" style="edgeStyle=none;html=1;entryX=1;entryY=0.5;entryDx=0;entryDy=0;entryPerimeter=0;rounded=0;curved=0;" edge="1" parent="1" source="2" target="10">
                    <mxGeometry relative="1" as="geometry">
                        <Array as="points">
                            <mxPoint x="733" y="661"/>
                        </Array>
                    </mxGeometry>
                </mxCell>
                <mxCell id="23" value="publish message" style="edgeLabel;html=1;align=center;verticalAlign=middle;resizable=0;points=[];" vertex="1" connectable="0" parent="12">
                    <mxGeometry x="-0.3681" y="2" relative="1" as="geometry">
                        <mxPoint x="5" y="13" as="offset"/>
                    </mxGeometry>
                </mxCell>
                <mxCell id="13" value="rabbitmq Queue" style="text;html=1;align=center;verticalAlign=middle;resizable=0;points=[];autosize=1;strokeColor=none;fillColor=none;" vertex="1" parent="1">
                    <mxGeometry x="563.72" y="699" width="110" height="30" as="geometry"/>
                </mxCell>
                <mxCell id="16" value="vendor-a&lt;div&gt;(sync)&lt;/div&gt;" style="whiteSpace=wrap;html=1;aspect=fixed;fillColor=#dae8fc;strokeColor=#6c8ebf;" vertex="1" parent="1">
                    <mxGeometry x="120" y="273.4" width="170" height="170" as="geometry"/>
                </mxCell>
                <mxCell id="39" style="edgeStyle=none;html=1;entryX=1;entryY=0.5;entryDx=0;entryDy=0;exitX=0.5;exitY=1;exitDx=0;exitDy=0;rounded=0;curved=0;" edge="1" parent="1" source="20" target="2">
                    <mxGeometry relative="1" as="geometry">
                        <Array as="points">
                            <mxPoint x="205" y="850"/>
                            <mxPoint x="880" y="850"/>
                            <mxPoint x="880" y="441"/>
                        </Array>
                    </mxGeometry>
                </mxCell>
                <mxCell id="41" value="/vendor-webhook/{id} =&amp;gt; WEBHOOK FOR ASYNC VENDORS" style="edgeLabel;html=1;align=center;verticalAlign=middle;resizable=0;points=[];" vertex="1" connectable="0" parent="39">
                    <mxGeometry x="-0.2484" y="-1" relative="1" as="geometry">
                        <mxPoint as="offset"/>
                    </mxGeometry>
                </mxCell>
                <mxCell id="20" value="vendor-b&lt;div&gt;(async)&lt;/div&gt;" style="whiteSpace=wrap;html=1;aspect=fixed;fillColor=#dae8fc;strokeColor=#6c8ebf;" vertex="1" parent="1">
                    <mxGeometry x="120" y="480" width="170" height="170" as="geometry"/>
                </mxCell>
                <mxCell id="24" value="" style="curved=1;endArrow=classic;html=1;" edge="1" parent="1" source="15">
                    <mxGeometry width="50" height="50" relative="1" as="geometry">
                        <mxPoint x="310" y="150" as="sourcePoint"/>
                        <mxPoint x="340" y="70" as="targetPoint"/>
                        <Array as="points">
                            <mxPoint x="360" y="150"/>
                            <mxPoint x="310" y="100"/>
                        </Array>
                    </mxGeometry>
                </mxCell>
                <mxCell id="26" value="these vendors are external to us" style="text;html=1;align=center;verticalAlign=middle;whiteSpace=wrap;rounded=0;" vertex="1" parent="1">
                    <mxGeometry x="310" y="30" width="120" height="30" as="geometry"/>
                </mxCell>
                <mxCell id="27" value="VENDORS" style="text;html=1;align=center;verticalAlign=middle;whiteSpace=wrap;rounded=0;" vertex="1" parent="1">
                    <mxGeometry x="40" y="200" width="90" height="30" as="geometry"/>
                </mxCell>
                <mxCell id="28" value="OUR APP" style="text;html=1;align=center;verticalAlign=middle;whiteSpace=wrap;rounded=0;" vertex="1" parent="1">
                    <mxGeometry x="410" y="200" width="120" height="30" as="geometry"/>
                </mxCell>
                <mxCell id="32" value="" style="edgeStyle=none;html=1;entryX=1;entryY=0.5;entryDx=0;entryDy=0;rounded=0;curved=0;exitX=0;exitY=0.5;exitDx=0;exitDy=0;" edge="1" parent="1" source="4" target="20">
                    <mxGeometry relative="1" as="geometry">
                        <mxPoint x="440" y="442" as="sourcePoint"/>
                        <mxPoint x="290" y="360" as="targetPoint"/>
                        <Array as="points">
                            <mxPoint x="400" y="440"/>
                            <mxPoint x="400" y="565"/>
                        </Array>
                    </mxGeometry>
                </mxCell>
                <mxCell id="33" value="..upto `n`" style="text;html=1;align=center;verticalAlign=middle;whiteSpace=wrap;rounded=0;" vertex="1" parent="1">
                    <mxGeometry x="270" y="669" width="60" height="30" as="geometry"/>
                </mxCell>
                <mxCell id="37" value="send, do not wait" style="edgeLabel;html=1;align=center;verticalAlign=middle;resizable=0;points=[];" vertex="1" connectable="0" parent="1">
                    <mxGeometry x="349.99647148772567" y="564.9960326655989" as="geometry"/>
                </mxCell>
                <mxCell id="44" style="edgeStyle=none;html=1;entryX=1;entryY=0.5;entryDx=0;entryDy=0;startArrow=classic;startFill=1;" edge="1" parent="1" source="42" target="2">
                    <mxGeometry relative="1" as="geometry"/>
                </mxCell>
                <mxCell id="45" value="POST /jobs&lt;div&gt;GET /jobs/{id}&lt;/div&gt;" style="edgeLabel;html=1;align=center;verticalAlign=middle;resizable=0;points=[];" vertex="1" connectable="0" parent="44">
                    <mxGeometry x="-0.2999" y="-2" relative="1" as="geometry">
                        <mxPoint as="offset"/>
                    </mxGeometry>
                </mxCell>
                <mxCell id="42" value="me" style="shape=umlActor;verticalLabelPosition=bottom;verticalAlign=top;html=1;outlineConnect=0;" vertex="1" parent="1">
                    <mxGeometry x="1050" y="411" width="30" height="60" as="geometry"/>
                </mxCell>
            </root>
        </mxGraphModel>
    </diagram>
</mxfile>